<?xml version="1.0" encoding="UTF-8"?>
<svg version="1.1" xmlns="http://www.w3.org/2000/svg" width="500" height="500">
<path d="M0 0 C165 0 330 0 500 0 C500 165 500 330 500 500 C335 500 170 500 0 500 C0 335 0 170 0 0 Z " fill="#000000" transform="translate(0,0)"/>
<path d="M0 0 C-1.38101684 4.70439588 -3.4015831 8.71411274 -5.9296875 12.8828125 C-6.31667816 13.53109009 -6.70366882 14.17936768 -7.10238647 14.84729004 C-7.92852091 16.22942456 -8.75729563 17.60998384 -9.58850098 18.98907471 C-10.88426452 21.14038153 -12.17114151 23.29678755 -13.45605469 25.45458984 C-17.23340806 31.78788815 -21.03997075 38.09796225 -24.9609375 44.34375 C-25.80809326 45.70669189 -25.80809326 45.70669189 -26.67236328 47.09716797 C-27.69499995 48.73572879 -28.73166145 50.36565218 -29.78466797 51.98486328 C-30.23213379 52.70399902 -30.67959961 53.42313477 -31.140625 54.1640625 C-31.72118652 55.06825928 -31.72118652 55.06825928 -32.31347656 55.99072266 C-34.2608555 61.69019942 -30.50711163 68.14863689 -28.34375 73.390625 C-27.78171623 74.77351463 -27.78171623 74.77351463 -27.20832825 76.18434143 C-25.97779039 79.20853182 -24.73880425 82.2291876 -23.5 85.25 C-22.64671896 87.34437617 -21.79410594 89.43902461 -20.94213867 91.53393555 C-18.73952104 96.94696461 -16.53063193 102.35741001 -14.32025146 107.76727295 C-11.01775154 115.85367249 -7.72581124 123.94435172 -4.44042969 132.03771973 C-3.324114 134.7839288 -2.20325391 137.52825231 -1.08203125 140.27246094 C-0.404762 141.93807545 0.27233155 143.60376143 0.94921875 145.26953125 C1.41656685 146.4083651 1.41656685 146.4083651 1.89335632 147.57020569 C4 152.77243879 4 152.77243879 4 155 C-3.92 155 -11.84 155 -20 155 C-24.49922893 146.00154214 -24.49922893 146.00154214 -26.10302734 141.81591797 C-26.64411636 140.4130806 -26.64411636 140.4130806 -27.19613647 138.98190308 C-27.57227081 137.99529694 -27.94840515 137.0086908 -28.3359375 135.9921875 C-28.73777252 134.94910431 -29.13960754 133.90602112 -29.55361938 132.83132935 C-30.83118288 129.51398773 -32.10354781 126.19468824 -33.375 122.875 C-40.8466678 103.29849109 -40.8466678 103.29849109 -49 84 C-49.39791748 84.68513672 -49.79583496 85.37027344 -50.20581055 86.07617188 C-52.03169528 89.21823176 -53.85958229 92.35912242 -55.6875 95.5 C-56.31333984 96.57765625 -56.93917969 97.6553125 -57.58398438 98.765625 C-58.19951172 99.82265625 -58.81503906 100.8796875 -59.44921875 101.96875 C-60.28972778 103.41411133 -60.28972778 103.41411133 -61.1472168 104.88867188 C-63 108 -63 108 -64.30952454 109.59838867 C-69.41362776 116.26246322 -68.73126551 123.87163162 -68.70703125 131.875 C-68.72016307 133.41058297 -68.73547183 134.94614871 -68.75285339 136.48168945 C-68.79254369 140.49958491 -68.8028834 144.51702688 -68.80688477 148.53509521 C-68.81624659 152.64462909 -68.85367898 156.75389984 -68.88867188 160.86328125 C-68.95308511 168.90890434 -68.98386017 176.95413512 -69 185 C-76.92 185 -84.84 185 -93 185 C-92.96745117 183.01452148 -92.93490234 181.02904297 -92.90136719 178.98339844 C-92.80693666 172.33758314 -92.76975363 165.69325536 -92.76940536 159.04679489 C-92.76718834 155.02632346 -92.74376718 151.00857185 -92.66748047 146.98876953 C-92.19821754 121.85358313 -92.19821754 121.85358313 -103.51660156 99.80175781 C-105.75671979 96.80627357 -106.0012508 96.25344458 -105.98168945 92.28979492 C-105.14775167 89.49513897 -104.31355551 86.8327865 -103.15234375 84.16015625 C-102.61577148 82.9081543 -102.61577148 82.9081543 -102.06835938 81.63085938 C-101.69517578 80.78330078 -101.32199219 79.93574219 -100.9375 79.0625 C-100.56044922 78.18787109 -100.18339844 77.31324219 -99.79492188 76.41210938 C-98.87077032 74.27135324 -97.9390249 72.13426353 -97 70 C-93.22219924 74.35019482 -90.56049173 79.09710323 -87.8125 84.125 C-87.36197266 84.93582031 -86.91144531 85.74664062 -86.44726562 86.58203125 C-84.72109516 89.71346493 -83.13352236 92.59943292 -82 96 C-81.34 96 -80.68 96 -80 96 C-79.75507813 95.15566406 -79.51015625 94.31132812 -79.2578125 93.44140625 C-77.86955488 89.6430989 -75.99624359 86.3554627 -73.875 82.9375 C-73.34519531 82.06834961 -73.34519531 82.06834961 -72.8046875 81.18164062 C-70.951566 78.14779762 -69.07837575 75.12645688 -67.20556641 72.10473633 C-62.23777316 64.06824111 -57.39660501 55.96655988 -52.625 47.8125 C-52.25560303 47.18237 -51.88620605 46.55223999 -51.50561523 45.90301514 C-47.50511254 39.07590161 -43.52280676 32.24115826 -39.70629883 25.30883789 C-38.913218 23.87307428 -38.10864491 22.44358824 -37.29174805 21.02124023 C-35.33910243 17.60093321 -33.67442774 14.26377333 -32.27734375 10.578125 C-26.20502216 -4.00373101 -14.04668325 -1.55366037 0 0 Z " fill="#FAFAFA" transform="translate(331,172)"/>
<path d="M0 0 C7.26 0 14.52 0 22 0 C24.52703705 6.17464911 27.05395468 12.3493468 29.58056641 18.52416992 C30.43987086 20.62413368 31.29924526 22.72406883 32.15869141 24.82397461 C33.39504148 27.84481378 34.63113881 30.86575626 35.8671875 33.88671875 C36.25059296 34.82335861 36.63399841 35.75999847 37.02902222 36.72502136 C37.38924469 37.60555679 37.74946716 38.48609222 38.12060547 39.39331055 C38.43593231 40.16386276 38.75125916 40.93441498 39.07614136 41.72831726 C39.38101471 42.47797256 39.68588806 43.22762787 40 44 C40.56003975 45.30192039 40.56003975 45.30192039 41.13139343 46.63014221 C42.21300019 49.58113785 41.93402954 51.0244865 41 54 C39.90844727 56.29589844 39.90844727 56.29589844 38.56640625 58.609375 C37.8403418 59.86427734 37.8403418 59.86427734 37.09960938 61.14453125 C36.59236328 62.00433594 36.08511719 62.86414063 35.5625 63.75 C35.05912109 64.62527344 34.55574219 65.50054687 34.03710938 66.40234375 C30.26254618 72.86872691 30.26254618 72.86872691 28 74 C25.7166246 68.19944181 23.43849934 62.39684227 21.1640625 56.59277344 C20.3892379 54.61736073 19.61319977 52.64242358 18.8359375 50.66796875 C17.72078353 47.83456733 16.60996395 44.99950041 15.5 42.1640625 C15.15001953 41.27756012 14.80003906 40.39105774 14.43945312 39.47769165 C14.11912109 38.65699188 13.79878906 37.83629211 13.46875 36.99072266 C13.04239258 35.9048436 13.04239258 35.9048436 12.60742188 34.79702759 C12 33 12 33 12 31 C8.89345744 32.55327128 8.44111297 35.58799658 7.296875 38.6953125 C7.02650925 39.4102034 6.75614349 40.1250943 6.47758484 40.86164856 C5.880536 42.44080364 5.28642285 44.02107085 4.6947937 45.6022644 C3.04953488 49.99534301 1.37922228 54.37883318 -0.29296875 58.76171875 C-0.65700302 59.71633499 -1.02103729 60.67095123 -1.39610291 61.65449524 C-7.21266837 76.84672398 -13.33526702 91.9196129 -19.40917969 107.01025391 C-23.80045846 117.93011472 -28.13487195 128.85602818 -32.21615601 139.89553833 C-33.81547966 144.18939701 -35.45350933 148.46864405 -37.0859375 152.75 C-37.43661789 153.67023453 -37.78729828 154.59046906 -38.14860535 155.53858948 C-39.22370948 158.35919733 -40.29934292 161.17960297 -41.375 164 C-42.11852893 165.95050584 -42.86201875 167.90102658 -43.60546875 169.8515625 C-45.40312479 174.56790729 -47.20157765 179.28394709 -49 184 C-57.25 184 -65.5 184 -74 184 C-70.62931748 172.7643916 -70.62931748 172.7643916 -68.75 168.33203125 C-68.31550537 167.29643066 -67.88101074 166.26083008 -67.43334961 165.19384766 C-66.96034424 164.07800293 -66.48733887 162.9621582 -66 161.8125 C-64.93678553 159.27555828 -63.87520543 156.73800049 -62.81640625 154.19921875 C-62.52673477 153.50530029 -62.23706329 152.81138184 -61.93861389 152.09643555 C-57.08042174 140.42591001 -52.3879394 128.6869108 -47.6628418 116.96206665 C-46.84055034 114.92172688 -46.01801218 112.8814865 -45.19520569 110.84135437 C-44.43944547 108.96723453 -43.6843839 107.09283273 -42.93016052 105.21809387 C-42.41740318 103.94635567 -42.41740318 103.94635567 -41.89428711 102.64892578 C-41.5751535 101.84988831 -41.2560199 101.05085083 -40.92721558 100.2276001 C-40.33924969 98.81503445 -39.71660841 97.41601789 -39.0486145 96.03948975 C-37.04386572 91.88959666 -36.62708005 89.41711144 -38 85 C-39.24185507 82.551827 -40.50603443 80.27072495 -41.9375 77.94140625 C-42.33646484 77.2751976 -42.73542969 76.60898895 -43.14648438 75.92259216 C-44.42214438 73.79708629 -45.7107234 71.67976794 -47 69.5625 C-47.83551019 68.17565684 -48.670153 66.78829074 -49.50390625 65.40039062 C-51.16704412 62.63523275 -52.8350588 59.8731209 -54.5078125 57.11376953 C-56.97208818 53.04841419 -59.42655592 48.97725151 -61.875 44.90234375 C-62.23207031 44.30958145 -62.58914062 43.71681915 -62.95703125 43.10609436 C-63.97718325 41.4075503 -64.98866099 39.70380617 -66 38 C-66.37801758 37.36804718 -66.75603516 36.73609436 -67.14550781 36.08499146 C-70 31.23114866 -70 31.23114866 -70 29 C-61.78906045 27.62751098 -53.04711193 26.36067125 -45 29 C-39.15042959 33.94554589 -36.26286685 41.20415821 -33.31103516 48.11230469 C-31.25649524 52.63764884 -28.65421893 56.8059772 -26 61 C-23.88969988 57.83454982 -22.51302492 54.61645858 -21.09375 51.11328125 C-20.81254303 50.42694107 -20.53133606 49.74060089 -20.24160767 49.03346252 C-19.32481666 46.79432418 -18.41245527 44.5534082 -17.5 42.3125 C-16.55494528 40.00184151 -15.60870158 37.69167231 -14.66238403 35.38153076 C-14.02714818 33.83061557 -13.39228188 32.27954895 -12.75778198 30.72833252 C-8.55769565 20.46363109 -4.27486672 10.23377183 0 0 Z " fill="#FBFBFB" transform="translate(239,143)"/>
</svg>
